# xmcd
# 
# Track frame offsets:
#     150
#     17478
#     38394
#     61448
#     84707
#     115720
#     138301
#     166361
#     192622
#     209905
# 
# Disc length: 3079
# 
# Revision: 0
# Processed by: cddbd v1.5.2PL0 Copyright (c) Steve Scherf et al.
# Submitted via: fre:ac v1.0.27
# 
DISCID=890c050a
DTITLE=Cathy Lemons - Black Crow
DYEAR=2014
DGENRE=Blues
TTITLE0=I'm A Good Woman
TTITLE1=Ain't Gonna Do It
TTITLE2=Black Crow
TTITLE3=Hip Check Man
TTITLE4=You're in My Town Now
TTITLE5=It All Went Down the Drain
TTITLE6=The Big Payback
TTITLE7=I'm Going to Try
TTITLE8=Texas Shuffle
TTITLE9=The Devil Has Blue Eyes
EXTD=
EXTT0=
EXTT1=
EXTT2=
EXTT3=
EXTT4=
EXTT5=
EXTT6=
EXTT7=
EXTT8=
EXTT9=
PLAYORDER=
